<?xml version="1.0" encoding="utf-8"?>
<!-- Generator: Adobe Illustrator 26.3.1, SVG Export Plug-In . SVG Version: 6.00 Build 0)  -->
<svg version="1.1" id="Layer_1" xmlns="http://www.w3.org/2000/svg" xmlns:xlink="http://www.w3.org/1999/xlink" x="0px" y="0px"
	 viewBox="0 0 841.9 595.3" style="enable-background:new 0 0 841.9 595.3;" xml:space="preserve">
<style type="text/css">
	.st0{fill:url(#SVGID_1_);}
	.st1{fill:url(#SVGID_00000127026894359379035200000001929352590732329601_);}
	.st2{fill:#E2B582;}
	.st3{fill:#EEB98F;}
	.st4{fill:#F4D4BE;}
	.st5{fill:#B78367;}
	.st6{fill:#56381C;}
	.st7{fill:#FCEFCB;}
	.st8{fill:#392313;}
	.st9{fill:#607E96;}
	.st10{fill:#F5FBFD;}
	.st11{fill:url(#SVGID_00000026151074103075658500000007150635808975489970_);}
	.st12{fill:#405D70;}
	.st13{fill:#B6D3E5;}
</style>
<g>
	
		<image style="overflow:visible;" width="2216" height="2217" xlink:href="75F1AC12.png"  transform="matrix(0.24 0 0 0.24 154.8 31.44)">
	</image>
</g>
<linearGradient id="SVGID_1_" gradientUnits="userSpaceOnUse" x1="343.8871" y1="119.1885" x2="517.8083" y2="479.9601">
	<stop  offset="0" style="stop-color:#725035"/>
	<stop  offset="0.28" style="stop-color:#634327"/>
	<stop  offset="0.5559" style="stop-color:#57391C"/>
	<stop  offset="1" style="stop-color:#56381C"/>
</linearGradient>
<path class="st0" d="M439.8,76.5c-16.2-6.3-53.5-8.1-81.8,10.8c-31.1,20.8-49.3,13.9-78.4,38.1s-24.2,25.5-40.8,59.2
	s-41.2,54.9-35.9,98c5.4,43,43.9,40.1,48.4,86.2s-7.9,55.7,37,80.8s53.2,57.4,84.8,63.7c49.3,9.9,55.5-16.1,93.2-18.1
	s74-9.1,85.2-33.8s55-40.5,67.5-58.9s-9.3-53,5.5-89.3s19.2-57.4,12-69.9c-7.2-12.5-28-44.2-34.4-69.5
	c-6.4-25.2-22.7-31.4-42.9-40.8s-31-27.9-50.7-32.6c-19.7-4.8-20.2-5-40.4-12.6S451,80.9,439.8,76.5z"/>
<linearGradient id="SVGID_00000057138222408133785440000015954134187253648276_" gradientUnits="userSpaceOnUse" x1="400.5119" y1="135.914" x2="449.0663" y2="514.5341">
	<stop  offset="0" style="stop-color:#56381C"/>
	<stop  offset="0.4241" style="stop-color:#462D17"/>
	<stop  offset="0.8352" style="stop-color:#392313"/>
</linearGradient>
<path style="fill:url(#SVGID_00000057138222408133785440000015954134187253648276_);" d="M442.7,106.6c0,0-28.2-9.9-43.9,4.9
	c-15.7,14.8-59.2,34.1-89.7,35.9c-30.5,1.8-25,59.8-58,74.4c-35.3,15.5-7.8,67.5-7.8,81.9c0,14.3,4.9,39.1-1.3,58.9
	c-6.3,19.7-14.2,80.7,40.2,90.5s77.7,35.9,128.3,22.9s83.8-38.5,111.6-38.1c27.8,0.4,75.3-26.9,80.2-44.8
	c4.9-17.9-12.1-78.5,5.8-101.6s-3.1-39.2-25.5-86.7c-22.4-47.5-23.8-66.8-63.6-80.2S462.4,117.8,442.7,106.6z"/>
<path class="st2" d="M334.7,103.4"/>
<g>
	<g>
		<path class="st3" d="M239.7,283.1c-0.4,0.7-1.2,1.1-1.7,0.8l-11.4-6.7c-0.5-0.3-0.6-1.1-0.1-1.8c0.4-0.7,1.2-1.1,1.7-0.8l11.4,6.7
			C240,281.6,240.1,282.4,239.7,283.1z"/>
	</g>
</g>
<g>
	<g>
		<path class="st3" d="M549.9,444.6c-0.4,0.7-1.2,1.1-1.7,0.8l-11.4-6.7c-0.5-0.3-0.6-1.1-0.1-1.8s1.2-1.1,1.7-0.8l11.4,6.7
			C550.3,443.1,550.3,443.9,549.9,444.6z"/>
	</g>
</g>
<g>
	<g>
		<path class="st3" d="M574.1,278.4c-0.4,0.7-1.2,1.1-1.7,0.8l-11.4-6.7c-0.5-0.3-0.6-1.1-0.1-1.8s1.2-1.1,1.7-0.8l11.4,6.7
			C574.5,276.8,574.6,277.7,574.1,278.4z"/>
	</g>
</g>
<g>
	<g>
		<path class="st4" d="M294.2,278.4c-0.4,0.7-1.2,1.1-1.7,0.8l-11.4-6.7c-0.5-0.3-0.6-1.1-0.1-1.8c0.4-0.7,1.2-1.1,1.7-0.8l11.4,6.7
			C294.6,276.8,294.7,277.7,294.2,278.4z"/>
	</g>
</g>
<g>
	<path class="st4" d="M262.9,368c-0.7-0.4-1.1-1.1-0.8-1.6l6.2-11.7c0.3-0.5,1.1-0.6,1.8-0.2c0.7,0.4,1.1,1.1,0.8,1.6l-6.2,11.7
		C264.5,368.3,263.7,368.4,262.9,368z"/>
</g>
<g>
	<g>
		<path class="st3" d="M276.2,323c-0.7-0.4-1.1-1.1-0.8-1.6l6.2-11.7c0.3-0.5,1.1-0.6,1.8-0.2c0.7,0.4,1.1,1.1,0.8,1.6l-6.2,11.7
			C277.7,323.3,276.9,323.4,276.2,323z"/>
	</g>
</g>
<g>
	<g>
		<path class="st3" d="M603.8,237.5c-0.8-0.3-1.2-1-1-1.5l4.6-12.4c0.2-0.5,1-0.7,1.8-0.4s1.2,1,1,1.5l-4.6,12.4
			C605.3,237.6,604.5,237.8,603.8,237.5z"/>
	</g>
</g>
<g>
	<g>
		<path class="st3" d="M537.6,408.2c0.1,0.8-0.3,1.5-0.9,1.6l-13.2,1.1c-0.6,0-1.1-0.6-1.2-1.4c-0.1-0.8,0.3-1.5,0.9-1.6l13.2-1.1
			C537,406.7,537.5,407.3,537.6,408.2z"/>
	</g>
</g>
<g>
	<g>
		<path class="st5" d="M249.3,331.1c-0.8,0.2-1.6-0.1-1.7-0.6l-3.2-12.8c-0.1-0.6,0.4-1.2,1.2-1.4c0.8-0.2,1.6,0.1,1.7,0.6l3.2,12.8
			C250.7,330.3,250.1,330.9,249.3,331.1z"/>
	</g>
</g>
<g>
	<g>
		<path class="st5" d="M604.5,304.3c-0.8,0.2-1.6-0.1-1.7-0.6l-3.2-12.8c-0.1-0.6,0.4-1.2,1.2-1.4c0.8-0.2,1.6,0.1,1.7,0.6l3.2,12.8
			C605.9,303.5,605.3,304.1,604.5,304.3z"/>
	</g>
</g>
<g>
	<g>
		<path class="st5" d="M312,424.1c-0.8,0.2-1.6-0.1-1.7-0.6l-3.2-12.8c-0.1-0.6,0.4-1.2,1.2-1.4c0.8-0.2,1.6,0.1,1.7,0.6l3.2,12.8
			C313.4,423.3,312.8,423.9,312,424.1z"/>
	</g>
</g>
<g>
	<path class="st4" d="M239.4,237.8c-0.8,0.2-1.6-0.1-1.7-0.6l-3.2-12.8c-0.1-0.6,0.4-1.2,1.2-1.4c0.8-0.2,1.6,0.1,1.7,0.6l3.2,12.8
		C240.8,236.9,240.2,237.6,239.4,237.8z"/>
</g>
<g>
	<path class="st4" d="M604.8,407.3c-0.6-0.5-0.9-1.3-0.5-1.7l8.3-10.3c0.4-0.4,1.2-0.4,1.8,0.1s0.9,1.3,0.5,1.7l-8.3,10.3
		C606.3,407.9,605.4,407.8,604.8,407.3z"/>
</g>
<g>
	<path class="st6" d="M238.4,355.1c-0.6,0.6-1.4,0.7-1.8,0.3l-9.1-9.6c-0.4-0.4-0.2-1.2,0.4-1.8c0.6-0.6,1.4-0.7,1.8-0.3l9.1,9.6
		C239.1,353.8,239,354.6,238.4,355.1z"/>
</g>
<g>
	<g>
		<path class="st5" d="M554.4,319c-0.8,0.2-1.6-0.1-1.7-0.6l-3.2-12.8c-0.1-0.6,0.4-1.2,1.2-1.4c0.8-0.2,1.6,0.1,1.7,0.6l3.2,12.8
			C555.7,318.2,555.2,318.8,554.4,319z"/>
	</g>
</g>
<g>
	<g>
		<path class="st5" d="M274.8,421.9c-0.6,0.6-1.4,0.8-1.8,0.4l-9.7-9c-0.4-0.4-0.3-1.2,0.3-1.8c0.6-0.6,1.4-0.8,1.8-0.4l9.7,9
			C275.4,420.5,275.3,421.3,274.8,421.9z"/>
	</g>
</g>
<g>
	<path class="st6" d="M468.4,502.4c0.2,0.8-0.2,1.6-0.7,1.7l-13,2.7c-0.6,0.1-1.2-0.4-1.3-1.3c-0.2-0.8,0.2-1.6,0.7-1.7l13-2.7
		C467.6,501,468.2,501.6,468.4,502.4z"/>
</g>
<g>
	<g>
		<path class="st5" d="M548.9,360.6c-0.6,0.6-1.4,0.8-1.8,0.4l-9.7-9c-0.4-0.4-0.3-1.2,0.3-1.8c0.6-0.6,1.4-0.8,1.8-0.4l9.7,9
			C549.6,359.2,549.5,360,548.9,360.6z"/>
	</g>
</g>
<g>
	<g>
		<path class="st5" d="M584.6,425.9c-0.4,0.7-1.1,1.1-1.6,0.9l-11.9-5.8c-0.5-0.3-0.6-1.1-0.3-1.8c0.4-0.7,1.1-1.1,1.6-0.9l11.9,5.8
			C584.8,424.3,585,425.1,584.6,425.9z"/>
	</g>
</g>
<g>
	<g>
		<path class="st5" d="M280.4,233.7c-0.4,0.7-1.1,1.1-1.6,0.9l-11.9-5.8c-0.5-0.3-0.6-1.1-0.3-1.8c0.4-0.7,1.1-1.1,1.6-0.9l11.9,5.8
			C280.7,232.1,280.8,232.9,280.4,233.7z"/>
	</g>
</g>
<g>
	<g>
		<path class="st5" d="M621.7,268.8c-0.4,0.7-1.1,1.1-1.6,0.9l-11.9-5.8c-0.5-0.3-0.6-1.1-0.3-1.8c0.4-0.7,1.1-1.1,1.6-0.9l11.9,5.8
			C621.9,267.2,622.1,268,621.7,268.8z"/>
	</g>
</g>
<g>
	<g>
		<path class="st5" d="M590,201.2c0.5,0.7,0.5,1.5,0,1.8l-10.8,7.7c-0.5,0.3-1.2,0.1-1.7-0.6c-0.5-0.7-0.5-1.5,0-1.8l10.8-7.7
			C588.8,200.2,589.6,200.5,590,201.2z"/>
	</g>
</g>
<g>
	<g>
		<path class="st3" d="M280.4,191.1c0.4,0.7,0.3,1.5-0.3,1.8l-11.8,6c-0.5,0.3-1.2-0.1-1.6-0.9s-0.3-1.5,0.3-1.8l11.8-6
			C279.3,190,280,190.4,280.4,191.1z"/>
	</g>
</g>
<g>
	<path class="st4" d="M219.3,327.7c0.4,0.7,0.3,1.5-0.3,1.8l-11.8,6c-0.5,0.3-1.2-0.1-1.6-0.9s-0.3-1.5,0.3-1.8l11.8-6
		C218.2,326.6,218.9,327,219.3,327.7z"/>
</g>
<g>
	<path class="st4" d="M539.2,199.9c0.4,0.7,0.3,1.5-0.3,1.8l-11.8,6c-0.5,0.3-1.2-0.1-1.6-0.9c-0.4-0.7-0.3-1.5,0.3-1.8l11.8-6
		C538.1,198.8,538.9,199.2,539.2,199.9z"/>
</g>
<g>
	<g>
		<path class="st3" d="M541.8,254.2c-0.6,0.6-1.4,0.8-1.8,0.4l-9.8-8.9c-0.4-0.4-0.3-1.2,0.2-1.8c0.6-0.6,1.4-0.8,1.8-0.4l9.8,8.9
			C542.4,252.8,542.3,253.6,541.8,254.2z"/>
	</g>
</g>
<g>
	<g>
		<path class="st3" d="M583.8,373.6c-0.8,0.3-1.6,0-1.8-0.5l-4.3-12.5c-0.2-0.5,0.3-1.2,1.1-1.5s1.6,0,1.8,0.5l4.3,12.5
			C585.1,372.7,584.6,373.3,583.8,373.6z"/>
	</g>
</g>
<g>
	<g>
		<path class="st3" d="M287.4,384.5c0.4,0.7,0.3,1.5-0.3,1.8l-11.8,6c-0.5,0.3-1.2-0.1-1.6-0.9c-0.4-0.7-0.3-1.5,0.3-1.8l11.8-6
			C286.3,383.4,287,383.8,287.4,384.5z"/>
	</g>
</g>
<g>
	<g>
		<path class="st3" d="M327.2,207.5c0.4,0.7,0.3,1.5-0.3,1.8l-11.8,6c-0.5,0.3-1.2-0.1-1.6-0.9c-0.4-0.7-0.3-1.5,0.3-1.8l11.8-6
			C326.1,206.4,326.8,206.8,327.2,207.5z"/>
	</g>
</g>
<g>
	<g>
		<path class="st3" d="M599.2,323.3c0.4,0.7,0.3,1.5-0.3,1.8l-11.8,6c-0.5,0.3-1.2-0.1-1.6-0.9c-0.4-0.7-0.3-1.5,0.3-1.8l11.8-6
			C598.1,322.2,598.8,322.6,599.2,323.3z"/>
	</g>
</g>
<g>
	<path class="st7" d="M479.6,265.1c-31.3-19.5-46.8,0-58.8,0s-27.6-19.5-58.8,0c-24.7,15.4-33,37.2-27.9,71.5
		c5,34,51.5,57.7,52.2,58c10.2,1.6,21.7,2.5,34.5,2.5s24.3-0.9,34.5-2.5c0.7-0.4,47.2-24,52.2-58
		C512.5,302.3,504.3,280.5,479.6,265.1z M405,295.3c-0.7,1-2.1,1.2-3,0.4c-2.9-2.3-6.1-4.3-9.6-5.6c-10.7-4.2-23.1-0.7-31.7,6.6
		c-0.7,0.6-1.6-0.3-1-1c12.9-12.1,30.3-13.9,44.8-3.3C405.5,293,405.7,294.3,405,295.3z M480.8,296.7c-8.6-7.3-21-10.8-31.7-6.6
		c-3.5,1.3-6.7,3.3-9.6,5.6c-0.9,0.7-2.3,0.6-3-0.4c-0.7-0.9-0.4-2.2,0.5-2.9c14.5-10.5,31.9-8.7,44.8,3.3
		C482.4,296.3,481.4,297.3,480.8,296.7z"/>
	<path class="st8" d="M404.5,292.3c-14.5-10.5-31.9-8.7-44.8,3.3c-0.7,0.7,0.3,1.6,1,1c8.6-7.3,21-10.8,31.7-6.6
		c3.5,1.3,6.7,3.3,9.6,5.6c0.9,0.7,2.3,0.6,3-0.4C405.7,294.3,405.5,293,404.5,292.3z"/>
	<path class="st9" d="M508.8,251.2c0.1-2.9,1.6-43.4-13-53c-4.5-3-19,13.5-25.6,27.5c-14.9-6-31.7-9.3-49.5-9.3s-34.6,3.4-49.5,9.3
		c-6.6-14.1-21.1-30.5-25.6-27.5c-14.6,9.6-13.1,50.2-13,53c-14.8,15.3-23.6,34.6-23.6,55.5c0,42.6,17.4,78.3,77.1,87.9
		c-0.7-0.4-47.2-24-52.2-58c-5.1-34.3,3.2-56.1,27.9-71.5c31.3-19.5,46.8,0,58.8,0s27.6-19.5,58.8,0c24.7,15.4,33,37.2,27.9,71.5
		c-5,34-51.5,57.7-52.2,58c59.7-9.5,77.1-45.2,77.1-87.9C532.4,285.8,523.6,266.5,508.8,251.2z"/>
	<path class="st8" d="M436.9,292.3c-0.9,0.7-1.2,2-0.5,2.9c0.7,1,2.1,1.2,3,0.4c2.9-2.3,6.1-4.3,9.6-5.6c10.7-4.2,23.1-0.7,31.7,6.6
		c0.7,0.6,1.6-0.3,1-1C468.9,283.6,451.4,281.8,436.9,292.3z"/>
</g>
<g>
	<path class="st10" d="M452.8,355c0,0,8-0.5,8.4-3.3s-7.5-13.4-8.4-10.6S449.8,355.4,452.8,355z"/>
	
		<linearGradient id="SVGID_00000064339597076977234540000017418952221146447512_" gradientUnits="userSpaceOnUse" x1="450.2491" y1="348.1324" x2="461.8255" y2="347.5642">
		<stop  offset="0" style="stop-color:#56381C"/>
		<stop  offset="0.4241" style="stop-color:#462D17"/>
		<stop  offset="0.8352" style="stop-color:#392313"/>
	</linearGradient>
	<path style="fill:url(#SVGID_00000064339597076977234540000017418952221146447512_);" d="M452.7,354.6c1-0.1,2-0.4,2.9-0.7
		c0.9-0.3,1.9-0.5,2.8-0.8c0.9-0.3,1.7-0.8,2-1.3c0-0.1,0-0.1,0.1-0.2c0-0.1,0-0.1,0-0.2c0-0.2,0-0.4-0.1-0.6
		c-0.1-0.4-0.3-0.9-0.5-1.3c-0.8-1.8-1.8-3.5-3-5.1c-0.6-0.8-1.2-1.6-1.9-2.3c-0.3-0.4-0.7-0.7-1.1-1c-0.4-0.3-0.9-0.5-1,0l0,0
		c-0.3,1.2-0.6,2.4-0.8,3.6c-0.2,1.2-0.4,2.4-0.5,3.7c-0.1,1.2-0.2,2.5-0.1,3.7c0,0.6,0.1,1.2,0.3,1.7c0.1,0.3,0.2,0.5,0.3,0.6
		C452.4,354.5,452.5,354.6,452.7,354.6z M452.8,355.5c-0.4,0.1-0.9-0.1-1.2-0.5c-0.3-0.3-0.4-0.7-0.5-1c-0.2-0.7-0.2-1.3-0.2-1.9
		c0-1.3,0.1-2.5,0.3-3.8c0.2-1.2,0.4-2.5,0.6-3.7c0.3-1.2,0.5-2.4,0.9-3.6l0,0c0-0.3,0.4-0.6,0.7-0.5c0.3,0,0.6,0.1,0.8,0.3
		c0.5,0.3,0.9,0.6,1.3,0.9c0.8,0.7,1.5,1.4,2.1,2.2c1.3,1.6,2.5,3.2,3.5,5.1c0.2,0.5,0.4,1,0.6,1.5c0.1,0.3,0.1,0.6,0.2,0.9
		c0,0.2,0,0.4,0,0.5c0,0.2-0.1,0.4-0.2,0.5c-0.3,0.7-0.8,1.1-1.3,1.4c-0.2,0.2-0.5,0.3-0.7,0.4c-0.2,0.1-0.5,0.2-0.7,0.3
		c-1,0.4-2,0.7-3.1,0.8C454.9,355.4,453.8,355.4,452.8,355.5z"/>
</g>
<path class="st12" d="M323,360c-11.9-17.1-15-38.8-13.7-59.2c1-15.5,6.3-31.5,16.9-43.3c3.5-4,7.5-7.6,11.8-10.7
	c1.2-0.9,2.9-0.6,3.7,0.6c0.9,1.2,0.6,3-0.7,3.8C323.9,262,314,281,312,301C309.8,321,312,342.7,323,360L323,360z"/>
<path class="st12" d="M362.7,230.5c26.3-17.9,78.1-18,106.6-5.3c2.3,1,4.4,2.1,6.6,3.5c0.7,0.4,0.9,1.4,0.4,2.1
	c-0.4,0.7-1.3,0.9-2,0.5c-3.9-2.2-8.7-3.9-13-5.2c-22.5-6.3-47.2-6.3-70-1.6c-8.9,2.1-17.9,4.9-25.6,10
	C363.2,236.5,360.1,232.7,362.7,230.5L362.7,230.5z"/>
<path class="st12" d="M332.6,253.1c-1.6-14.8-1.8-34.1,4.9-47.8c5.2-9.5,11.6-10.6,19.1-2.7c4.2,4.4,7.6,9.6,10.6,14.8
	c2,3.5,3.8,7,5.3,10.7c0.3,0.8,0,1.7-0.8,2c-0.6,0.3-1.4,0.1-1.8-0.5c-4.8-6.1-9.4-12.4-14.4-18c-2.4-2.5-5.2-5.9-8.2-7
	c0.1-0.1,0.2,0,0.3-0.1c-0.3,0.2-0.6,0.4-0.9,0.7c-3.6,3.4-5,8.7-6.4,13.7c-0.9,3.6-1.6,7.4-2.2,11.1c-1.1,7.6-1.9,15.3-2.5,23
	C335.5,254.8,332.8,254.9,332.6,253.1L332.6,253.1z"/>
<path class="st12" d="M505.8,253c-1.2-11.6-2.6-41.7-11.9-48.5c-0.1-0.1,0,0,0,0c0.1,0,0.2,0.1,0.2,0.1c-1,0.2-2.5,1.3-3.5,2.1
	c-6.8,6.1-12.1,13.8-18,21c-1.1,1.4-3.3,0.1-2.6-1.5c3.4-8.2,14.6-29.8,24.9-28.9c11.4,2.4,14,23,14.6,32.5
	c0.5,7.8,0.3,15.5-0.7,23.2C508.6,254.9,505.9,254.8,505.8,253L505.8,253z"/>
<g>
	<path class="st13" d="M312.8,190.3c-9.4-12.9-18.8-25.9-28.2-38.8c7.5-5.4,15.2-10.4,23.1-14.8c17.1-9.5,29.2-5.1,35,9.6
		c5.9,14.9,1.5,24.9-12.2,32.6C324.4,182.4,318.5,186.2,312.8,190.3z M323.5,178.4c1.2-0.7,2.3-1.4,3.5-2.1c3.2-1.9,4.8-4.3,4.7-7.6
		c-0.1-3.2-1.8-8.2-5.2-15c-3.5-6.7-6.6-11-9.4-12.8c-2.8-1.8-6.3-1.6-10.2,0.7c-1.4,0.8-2.8,1.7-4.2,2.5
		C309.6,155.6,316.5,167,323.5,178.4z"/>
	<path class="st13" d="M366,112.5c18.4-4.5,28.8,3.1,30.7,19.4c1.9,16.5-4.5,25.3-18.9,28.8c-14.4,3.7-24.4-1-30.8-16.8
		C341,129.1,347,117.4,366,112.5z M366.5,116.3c-3.4,0.9-5.2,2.9-5.6,6c-0.4,3.1,0.7,8.6,3,16.5c2.3,7.9,4.4,13,6.2,15.5
		c1.8,2.5,4,3.4,6.8,2.7c2.7-0.7,4.3-2.5,4.7-5.6c0.4-3-0.3-8.6-2-16.6c-1.7-8-3.4-13.3-5.2-15.9
		C372.4,116.4,369.8,115.5,366.5,116.3z"/>
	<path class="st13" d="M449.4,107.4c-1.1,10.7-2.3,21.3-3.4,32c-1.3,11-8.3,15.5-21,15.4c-12.7,0-19.6-4.5-20.8-15.6
		c-1.1-10.7-2.1-21.4-3.2-32c6.1-0.6,12.3-1,18.4-1.1c0.2,10.9,0.4,21.7,0.7,32.6c0.1,4.2,0.8,7.1,2.2,8.6c1.3,1.5,3.7,2.3,7.3,2.4
		c6.8,0.2,10.5-3.2,11.1-10.8c0.9-10.7,1.7-21.4,2.6-32.1C445.3,107,447.4,107.2,449.4,107.4z"/>
	<path class="st13" d="M478.3,135c7.7,2,15.3,4.4,22.9,7.3c-3.1,8.1-6.2,16.1-9.2,24.2c-1.5-0.6-3-1.1-4.5-1.6
		c-0.1-1.2-0.3-2.4-0.5-3.7c-4.9,1.2-9.4,1.3-13.8,0.1c-7.3-1.9-12.5-5.1-16-10c-3.5-4.9-4.9-11.1-3.9-18.8
		c1-7.4,4.3-13.2,10.5-16.9c6.1-3.7,13.8-4.5,22.5-2.2c11.5,3.1,16.9,10,16,19.3c-2.9,0-5.9,0-8.8,0.1c0.1-0.4,0.2-0.7,0.4-1.1
		c0.2-0.8,0.5-1.7,0.7-2.5c1.2-5.5-1.2-9.3-7.3-11c-4.5-1.2-7.9-0.5-10.2,2c-2.3,2.5-4.3,7.8-6.1,15.8c-1.7,7.5-2.2,12.7-1.7,15.6
		c0.5,2.9,2.3,4.8,5.3,5.6c3.6,1,5.9-0.3,7.1-4c1.1-3.8,2.3-7.5,3.4-11.3c-2.6-0.8-5.3-1.5-7.9-2.2
		C477.5,138.1,477.9,136.6,478.3,135z"/>
	<path class="st13" d="M523.4,154.6c-3.7,7.1-7.4,14.1-11.1,21.2c-4.5-2.3-9-4.5-13.6-6.4c6.3-14.7,12.5-29.4,18.8-44.2
		c5.8,2.5,11.4,5.1,17,8.1c-3,5.7-6,11.4-8.9,17.1c4.2,2.2,8.3,4.5,12.4,7c3.3-5.5,6.7-11,10-16.5c5.4,3.3,10.8,6.9,16,10.7
		c-9.4,12.9-18.8,25.9-28.2,38.8c-4.2-3-8.4-5.9-12.8-8.5c4.1-6.8,8.3-13.6,12.4-20.4C531.5,159,527.5,156.7,523.4,154.6z"/>
</g>
<g>
	<path class="st13" d="M378.5,419.3c-4,15.5-8,31-12,46.5c-4.6-1.2-9.1-2.5-13.6-4c-5.3-12.4-9.3-25-12-37.4
		c-4.3,9.2-8.7,18.3-13,27.5c-1.9-0.9-3.8-1.8-5.7-2.8c7.3-14.3,14.5-28.5,21.8-42.8c2.8,1.4,5.6,2.7,8.4,4
		c2.6,13.1,6.7,26.3,12.3,39.3c3-10.5,6.1-21,9.1-31.5C375.3,418.5,376.9,418.9,378.5,419.3z"/>
	<path class="st13" d="M408.8,424.3c3.4,16.3,8.2,32.5,14.2,48.4c-6.2,0.1-12.3-0.1-18.5-0.6c-1-3.6-1.9-7.1-2.8-10.7
		c-6-0.6-12.1-1.4-18-2.5c-1.9,3.2-3.8,6.3-5.8,9.5c-2.4-0.5-4.7-1-7.1-1.5c9.8-14.1,18.3-28.8,25.4-44
		C400.4,423.5,404.6,424,408.8,424.3z M386.3,454.5c4.8,0.8,9.6,1.5,14.4,2c-1.6-7.3-3-14.6-4.1-21.9
		C393.4,441.3,389.9,448,386.3,454.5z"/>
	<path class="st13" d="M460.7,419.9c0.4,1.6,0.8,3.1,1.1,4.7c-4.1,1-8.2,1.8-12.3,2.5c2.4,14.2,4.8,28.4,7.2,42.6
		c-6.4,1.1-12.9,1.9-19.4,2.4c-1.1-14.3-2.2-28.7-3.3-43c-4.2,0.3-8.3,0.5-12.5,0.5c0-1.6,0-3.2,0-4.8
		C434.7,424.7,447.9,423.1,460.7,419.9z"/>
	<path class="st13" d="M494.8,407.7c0.7,1.4,1.4,2.9,2.1,4.3c-5.6,2.7-11.3,5.1-17.1,7.2c1.6,4.6,3.3,9.1,4.9,13.7
		c5.3-1.9,10.5-4,15.6-6.4c0.7,1.5,1.4,2.9,2,4.4c-5.3,2.4-10.6,4.6-16,6.6c2.2,6,4.3,11.9,6.5,17.9c8.3-3,16.4-6.5,24.3-10.5
		c0.7,1.4,1.5,2.9,2.2,4.3c-13.7,7-28,12.4-42.6,16.3c-4.1-15.5-8.2-30.9-12.4-46.4C474.7,416.2,484.9,412.4,494.8,407.7z"/>
</g>
<path class="st8" d="M375.5,358.4c27.7,3.5,61.9,3.9,87.4-8.5c1.6-0.8,3.5-0.2,4.3,1.4c0.8,1.6,0.1,3.6-1.6,4.3
	c-7.2,3.1-14.7,5.1-22.3,6.3c-15.1,2.4-30.4,2.2-45.5,0.8c-7.5-0.7-15-1.8-22.4-3.3c-0.3-0.1-0.5-0.3-0.4-0.6
	C374.9,358.6,375.2,358.4,375.5,358.4L375.5,358.4z"/>
</svg>
